<svg id="Layer_1" data-name="Layer 1" xmlns="http://www.w3.org/2000/svg" viewBox="0 0 395.39 72.37"><defs><style>.cls-1{fill:#ef3e1f;}</style></defs><polygon class="cls-1" points="5.35 66.74 13.12 66.74 13.12 32.88 58.57 32.88 58.57 25.44 13.12 25.44 13.12 13.08 58.57 13.08 58.57 5.63 5.35 5.63 5.35 66.74"/><polygon class="cls-1" points="75.37 5.63 67.6 5.63 67.6 66.74 138.53 66.74 138.53 59.29 75.37 59.29 75.37 5.63"/><path class="cls-1" d="M161.29,5a12.49,12.49,0,0,0-9.18,3.47c-4,4.07-4.62,8-4.62,27.72s.64,23.65,4.6,27.7a12.54,12.54,0,0,0,9.2,3.48c6.27,0,13-4.34,13-13.88v-21H159v7.45h7.54V53.33c0,4.13-2,6.6-5.24,6.6a4.9,4.9,0,0,1-3.63-1.24c-1.95-2.14-2.41-4.47-2.41-22.5s.46-20.36,2.39-22.48a4.86,4.86,0,0,1,3.65-1.26c1.57,0,5.24,0,5.24,7.7v2.3h7.77v-2.3c0-5-1.28-8.87-3.85-11.62A12.45,12.45,0,0,0,161.29,5Z"/><path class="cls-1" d="M236.28,30.33c2-2,3.06-4.88,3.06-8.66,0-16-8.26-16-13.72-16H182.86V66.74h7.77V33.6h29.73l14.26,33.14h7.76l-14.7-33.55C230.48,33.16,233.81,32.72,236.28,30.33ZM231.58,21c0,4.43-.86,5.21-5.73,5.21H190.63V13.08h35.22C229.92,13.08,231.58,13.39,231.58,21Z"/><path class="cls-1" d="M267.58,5.63h-3.22L251.23,66.74H259l3.34-17h9.41l3.41,17h7.76L270,5.63Zm-3.74,36.68L267,26.21l3.22,16.1Z"/><polygon class="cls-1" points="334.03 56.74 299.15 21.39 291.74 21.39 291.74 66.74 299.5 66.74 299.5 32.83 332.87 66.74 341.46 66.74 341.73 21.39 333.96 21.39 334.03 56.74"/><polygon class="cls-1" points="291.74 5.63 291.74 13.08 350.54 13.08 350.54 66.74 358.31 66.74 358.31 13.08 390.04 13.08 390.04 5.63 291.74 5.63"/><path class="cls-1" d="M130.55,51h7.75L115.86,5.63h-7.75l0,.06H107L84.54,51h7.87l5.73-11.56h26.69ZM101.4,32.86l10.09-20.39,10.09,20.39Z"/></svg>
