<svg width="1440" height="340" viewBox="0 0 1440 340" fill="none" xmlns="http://www.w3.org/2000/svg">
<g filter="url(#filter0_d_3804_1890)">
<path d="M2.70532 334.967C6.11035 329.361 12.0189 325.557 14.6227 319.45C15.1234 318.349 15.6241 316.948 17.4268 317.548C21.1322 318.75 22.5342 315.646 22.9348 313.544C23.5356 310.541 24.4369 310.04 27.1409 310.741C29.0436 311.242 31.1466 311.342 33.0494 310.941C39.9595 309.64 47.8709 310.341 51.6764 302.132C52.3774 300.63 54.6808 299.529 55.8824 298.328C58.1858 295.925 61.8912 296.526 63.7939 293.222C66.4979 288.317 68.9014 282.411 76.4122 282.911C77.7141 283.012 79.0161 281.61 80.5183 281.21C87.228 279.408 93.2367 275.403 100.748 275.804C108.058 276.104 114.668 273.201 120.176 267.895C122.079 265.993 123.981 263.491 126.785 262.89C133.996 261.288 140.906 257.785 148.717 259.386C153.624 260.387 158.431 256.984 163.439 258.886C163.939 259.086 164.941 258.285 165.642 257.885C178.06 250.777 188.375 241.167 198.389 231.056C202.195 227.252 206.401 223.648 213.011 224.049C221.022 224.549 228.433 221.946 234.241 215.54C238.247 211.135 243.855 208.933 249.764 208.933C252.768 208.933 255.973 210.734 258.777 208.632C261.381 206.53 264.385 206.63 267.289 206.63C268.792 206.63 270.394 206.83 271.495 205.829C274.299 203.327 277.504 203.527 280.909 203.627C285.015 203.827 289.421 203.226 291.725 199.723C294.529 195.518 297.934 196.219 300.638 198.121C306.146 201.925 311.253 199.623 316.26 198.021C319.164 197.12 321.768 196.119 324.873 196.319C328.779 196.619 333.285 196.419 335.488 193.316C338.893 188.311 342.398 190.112 346.604 191.314C351.311 192.615 355.718 195.819 360.825 195.418C370.839 194.617 379.652 189.512 387.363 184.106C394.674 179.101 400.683 180.702 407.292 182.504C411.298 183.606 415.204 184.507 418.909 182.705C421.012 181.704 422.915 180.903 425.218 180.402C430.726 179.101 436.234 178.7 441.742 177.899C443.745 177.599 445.648 176.798 446.85 175.096C451.256 169.09 458.867 167.488 463.975 162.383C467.279 159.079 472.187 157.978 477.194 159.68C483.102 161.682 489.412 159.38 495.22 161.482C499.927 163.184 504.934 163.084 509.541 163.384C515.149 163.784 521.158 161.282 526.766 159.38C529.97 158.279 533.876 158.078 535.979 159.28C539.684 161.382 543.29 160.681 546.995 160.881C549.899 161.082 552.603 161.282 554.706 163.384C556.609 165.386 560.415 165.686 561.316 164.585C564.32 160.681 569.628 159.28 571.831 154.975C573.834 151.071 577.139 151.171 580.243 151.972C584.75 153.173 588.956 151.171 591.96 149.269C598.47 145.064 605.28 145.064 612.29 145.765C615.294 146.066 618.198 147.667 621.103 149.169C626.51 151.972 632.018 150.07 636.625 147.367C643.435 143.263 651.447 145.064 658.557 142.261C661.762 141.06 665.367 142.061 668.371 138.457C670.274 136.155 672.978 133.853 675.582 132.051C679.788 129.148 683.293 125.444 689.602 125.844C697.513 126.445 704.724 123.642 710.532 117.535C714.738 113.13 720.347 111.729 726.355 113.931C727.858 114.532 729.059 114.632 730.561 113.931C735.969 111.629 741.377 109.426 746.885 107.324C748.588 106.624 750.39 105.923 752.193 106.023C761.807 106.523 770.62 102.619 780.033 102.019C785.241 101.718 790.348 99.8162 795.756 101.618C804.068 104.421 810.277 98.1144 817.387 95.7119C820.091 94.8109 822.395 93.9099 825.399 94.01C828.504 94.01 832.609 94.5106 834.612 91.107C836.515 87.8034 839.62 86.502 842.824 86.4019C851.236 86.1016 857.345 80.2954 864.856 77.993C865.357 77.7928 865.858 77.092 866.058 76.4914C866.959 73.5883 868.662 74.8897 869.763 75.9908C874.771 80.796 880.779 79.3945 886.387 78.2933C888.891 77.7928 891.094 77.4924 893.598 78.0931C898.405 79.1943 903.212 79.5947 906.817 75.19C908.019 73.5883 909.521 73.5883 911.224 74.3891C915.129 76.2912 919.335 77.4924 922.84 79.9951C930.652 85.6011 938.263 82.5979 945.874 80.0952C951.682 78.0931 957.691 76.5915 963.299 73.6884C964.2 73.1879 965.903 72.9877 966.704 73.4882C970.209 75.6905 974.616 75.3902 978.121 77.993C980.224 79.5947 983.328 80.5958 986.132 79.7949C994.645 77.4925 1003.16 78.2933 1011.77 78.6937C1013.87 78.7938 1016.08 78.0931 1017.08 76.3913C1018.88 73.3881 1021.68 72.6873 1024.49 72.0867C1027.39 71.486 1029.5 69.8844 1031.8 68.1826C1035.7 65.3795 1039.91 64.1782 1045.12 65.0792C1050.43 65.9802 1055.03 69.584 1060.74 68.6831C1062.74 68.3827 1064.15 69.7842 1065.85 70.3849C1072.56 72.5872 1078.87 75.2901 1086.38 74.6895C1091.28 74.2891 1096.79 72.0867 1101.1 73.6884C1109.41 76.7917 1115.72 72.4871 1121.93 69.4839C1129.64 65.78 1138.55 65.8801 1145.06 71.7864C1148.77 75.19 1159.08 76.9919 1163.09 74.4893C1172.2 68.8833 1181.22 71.0856 1188.83 76.1911C1195.84 80.8961 1202.05 80.8961 1209.26 78.6938C1212.16 77.7928 1215.57 75.9909 1218.27 77.8929C1220.67 79.5947 1222.38 78.7939 1224.18 77.993C1225.58 77.2922 1227.08 76.1911 1228.38 76.8918C1233.69 79.5947 1238 77.3923 1242.1 74.3891C1243.91 73.0878 1245.51 71.7864 1247.31 70.485C1252.02 67.1815 1256.82 64.5787 1263.13 66.1804C1270.04 67.9823 1276.85 66.2805 1282.46 62.4765C1290.77 56.7704 1298.99 54.2677 1308.6 58.7725C1310.8 59.7736 1313.11 59.0729 1315.41 58.272C1319.42 56.7704 1323.42 56.0696 1327.93 56.4701C1332.94 56.9706 1338.14 58.0718 1343.15 56.6703C1348.66 55.1687 1353.97 57.7714 1359.47 56.4701C1363.48 55.5691 1367.29 57.7714 1371.09 59.0728C1374.8 60.3742 1378.7 60.7747 1382.71 59.173C1388.42 56.9706 1394.12 54.4679 1400.63 55.8694C1403.04 56.37 1407.14 56.7704 1408.04 55.469C1411.75 50.4637 1416.66 51.2645 1421.46 51.3646C1427.17 51.4647 1431.78 47.4604 1437.39 47.3604C1439.39 47.3604 1440.09 44.9578 1439.99 42.6554C1439.79 35.5478 1439.99 28.3401 1439.89 21.2325C1439.89 20.1313 1440.19 18.9301 1439.29 17.929C1437.19 15.5264 1424.67 12.323 1421.66 13.5243C1416.46 15.5264 1411.25 17.6287 1406.04 19.4306C1404.24 20.1313 1402.34 20.4316 1400.23 20.1313C1398.03 19.831 1395.73 19.2304 1394.32 22.634C1393.62 24.2357 1390.52 25.5371 1387.71 25.1367C1381.81 24.2357 1376.2 26.2378 1370.39 27.1388C1365.88 27.8395 1362.48 30.0419 1358.67 31.9439C1355.57 33.5456 1352.16 36.2485 1348.56 35.2475C1344.05 33.9461 1340.25 35.1473 1336.14 36.2485C1334.14 36.749 1332.23 36.749 1330.23 36.0483C1328.43 35.4477 1326.73 35.6479 1324.82 36.0483C1319.52 37.0494 1314.11 40.5531 1308.8 36.0483C1308.6 35.8481 1308.2 35.7479 1307.9 35.8481C1302.09 36.3486 1296.08 34.1463 1290.27 37.2496C1286.57 39.2517 1282.76 35.1473 1279.06 36.3486C1275.65 37.4498 1272.55 37.3497 1269.34 36.0483C1266.84 35.0472 1264.44 35.3475 1261.83 35.748C1256.72 36.4487 1252.02 39.8523 1246.41 37.9503C1244.01 37.1495 1242.5 34.9471 1239.8 34.7469C1233.49 34.0462 1227.88 37.2496 1221.77 37.7501C1219.57 37.9503 1217.27 38.651 1215.06 37.9503C1209.26 36.1484 1203.65 34.4466 1197.84 38.6511C1194.84 40.8534 1190.43 40.1527 1187.52 38.0504C1183.82 35.3475 1180.41 35.1473 1176.41 36.4487C1173.6 37.3496 1165.69 34.847 1164.89 32.1441C1163.99 29.1409 1162.39 29.1409 1160.08 29.4412C1150.87 30.5424 1143.26 26.3379 1135.75 22.0333C1134.85 21.5328 1134.15 21.2325 1133.15 21.0323C1126.04 19.4305 1118.22 22.3337 1111.71 16.8278C1110.01 15.4263 1106.91 14.8257 1104 15.7266C1102.6 16.2271 1101.2 15.7266 1099.9 14.5253C1095.29 10.2207 1089.78 12.4231 1085.18 13.8246C1081.77 14.9257 1078.47 16.0269 1074.86 16.8278C1071.66 17.5285 1069.95 22.5339 1066.55 24.6361C1065.55 25.2368 1064.45 25.7373 1063.34 26.0376C1058.94 27.339 1054.53 28.6404 1050.02 29.7415C1047.92 30.2421 1046.32 31.0429 1045.22 32.8448C1040.01 40.7533 1035.5 42.355 1026.19 39.3518C1024.39 38.7511 1022.89 38.651 1021.48 39.8523C1018.68 42.355 1015.78 41.5541 1012.77 40.3528C1005.16 37.2495 997.048 38.9514 990.138 41.1537C980.524 44.1569 969.208 43.8566 961.296 37.1494C960.395 36.4487 959.393 35.4476 958.392 35.4476C953.385 35.5477 949.179 33.5456 944.972 31.2432C941.367 29.3411 927.247 30.142 925.745 33.3454C923.141 39.0514 917.933 37.6499 913.927 38.8512C908.319 40.5531 902.611 41.2538 898.806 46.2592C897.504 47.961 895.1 49.2623 893.598 47.961C888.29 43.5563 882.282 45.9588 878.075 47.9609C866.659 53.4668 857.245 44.9577 846.83 45.3582C846.73 45.3582 846.63 45.158 846.43 45.0579C838.818 39.0515 830.006 37.7501 820.592 38.7511C819.19 38.8512 818.189 39.4518 817.087 40.3528C813.582 43.356 810.177 46.0589 805.069 45.9588C802.466 45.9588 799.662 46.9599 797.659 49.4625C796.056 51.5648 794.053 53.2666 790.849 51.3646C789.747 50.6638 787.144 49.8629 786.242 52.3656C784.64 56.5701 781.035 56.47 777.429 56.9706C773.023 57.5712 768.817 56.7703 764.21 58.0717C757.801 59.8737 750.891 60.5744 744.281 62.3763C739.574 63.6777 734.367 64.3784 730.461 66.6809C722.65 71.1857 714.939 70.8854 706.527 70.485C702.621 70.2847 697.714 70.3849 693.908 73.0877C691.405 72.2869 689.502 73.1878 688.4 75.5904C687.799 75.5904 687.098 75.4903 686.498 75.4903C684.294 73.1878 681.39 72.1868 678.586 72.9876C673.178 74.4892 668.271 77.4924 662.362 76.9919C661.161 76.8918 660.66 77.7927 660.56 78.8939C660.36 81.0963 660.059 83.2986 659.859 85.501C658.657 86.502 656.654 86.4019 656.354 88.404C656.153 88.6043 655.953 88.7044 655.653 88.7044C650.946 90.5063 646.64 84.7001 641.833 88.2038C641.733 88.304 641.532 88.1037 641.332 88.1037C636.926 86.2017 634.622 90.206 631.418 91.6075C631.317 91.8077 631.117 92.0079 630.917 92.0079C625.008 90.3061 619.701 93.1091 614.393 94.8109C611.389 95.7119 607.383 95.0111 605.38 98.6149C604.979 99.7161 602.676 100.217 602.676 99.8162C601.174 99.616 599.571 99.3157 599.371 101.518C599.271 101.718 599.071 101.818 598.77 101.918C591.46 102.019 584.149 103.12 576.838 102.119C576.438 102.019 576.037 101.918 575.637 101.918C570.529 101.918 565.322 101.818 560.214 101.818C560.214 100.817 559.914 99.9163 558.612 100.016C557.61 100.117 557.41 100.817 557.31 101.618C549.499 102.119 541.587 104.321 533.876 100.517C532.174 99.7161 530.371 99.7161 528.668 100.917C527.367 101.818 525.664 101.918 524.462 100.817C518.854 95.812 513.547 100.117 509.04 102.219C502.731 105.322 495.621 107.925 492.216 115.233C491.615 116.534 489.712 117.535 488.11 117.936C483.503 119.337 479.597 122.34 475.091 123.942C472.787 124.843 471.686 126.244 470.785 128.347C467.88 135.254 460.87 138.858 453.559 137.156C451.356 136.656 449.654 136.656 448.152 138.257C445.348 141.16 441.542 141.361 438.638 139.759C435.333 137.957 432.529 139.458 430.226 140.46C428.223 141.361 426.62 142.061 424.417 141.961C420.712 141.861 417.407 143.263 414.703 145.865C413.802 146.666 413.001 147.367 411.799 147.567C403.287 149.069 395.075 149.569 387.464 144.364C386.562 143.763 385.761 143.263 384.359 143.763C380.954 144.764 377.549 143.663 374.345 142.562C366.133 139.659 356.318 142.562 351.211 150.07C350.71 150.771 350.209 151.371 349.308 151.571C343.3 152.773 337.792 155.075 332.684 158.579C330.581 160.08 327.877 160.481 327.076 163.784C326.575 165.686 323.972 167.689 321.869 166.587C315.159 163.084 310.552 167.789 305.144 169.891C300.738 171.593 295.73 174.095 291.224 172.894C287.318 171.893 283.713 170.792 279.808 171.593C277.905 171.993 276.302 171.593 274.6 170.592C267.89 166.888 260.379 166.688 253.069 167.488C250.064 167.789 247.26 169.09 244.957 171.593C242.153 174.596 239.148 177.599 234.442 178.4C231.537 178.901 228.233 180.402 226.53 183.706C225.428 185.808 223.626 186.809 220.722 186.208C218.519 185.708 215.915 185.508 215.314 189.412C215.013 191.013 212.009 193.016 210.106 193.216C201.494 194.117 193.783 197.12 185.771 200.123C175.957 203.827 166.343 207.831 157.73 213.638C152.523 217.141 146.814 217.542 141.507 218.343C134.897 219.244 128.889 220.745 123.581 224.649C122.78 225.25 121.979 226.251 121.177 226.251C112.064 226.151 104.353 230.856 95.9406 233.258C93.6372 233.959 93.0364 234.66 92.9363 236.762C92.8361 243.67 90.8333 245.572 83.823 246.272C80.5183 246.573 76.6127 246.072 74.109 247.774C68.0001 251.878 60.5894 252.479 54.2802 256.083C48.8723 259.186 42.4631 260.888 37.4558 264.692C30.7461 269.797 22.8346 270.698 15.1234 271.099C9.31495 271.399 4.00733 272.1 -0.999995 275.003C-0.999996 294.924 -0.999998 314.946 -1 334.867C0.101563 335.868 1.60376 336.769 2.70532 334.967Z" fill="#FCF9F7"/>
</g>
<defs>
<filter id="filter0_d_3804_1890" x="-9" y="0" width="1457" height="340" filterUnits="userSpaceOnUse" color-interpolation-filters="sRGB">
<feFlood flood-opacity="0" result="BackgroundImageFix"/>
<feColorMatrix in="SourceAlpha" type="matrix" values="0 0 0 0 0 0 0 0 0 0 0 0 0 0 0 0 0 0 127 0" result="hardAlpha"/>
<feOffset dy="-4"/>
<feGaussianBlur stdDeviation="4"/>
<feComposite in2="hardAlpha" operator="out"/>
<feColorMatrix type="matrix" values="0 0 0 0 0.108333 0 0 0 0 0.108333 0 0 0 0 0.108333 0 0 0 0.15 0"/>
<feBlend mode="normal" in2="BackgroundImageFix" result="effect1_dropShadow_3804_1890"/>
<feBlend mode="normal" in="SourceGraphic" in2="effect1_dropShadow_3804_1890" result="shape"/>
</filter>
</defs>
</svg>
