<svg width="7" height="9" viewBox="0 0 7 9" fill="none" xmlns="http://www.w3.org/2000/svg">
<path fill-rule="evenodd" clip-rule="evenodd" d="M3.54377 0.272949C4.58812 0.272949 5.56844 0.711641 6.17712 1.4514L6.24929 1.5391C6.89033 2.31819 6.98538 3.34216 6.49639 4.20096L4.09201 8.42378C3.94173 8.68772 3.57445 8.79549 3.27167 8.66449C3.15195 8.61269 3.05496 8.52814 2.99554 8.42378L0.591161 4.20096C0.102167 3.34216 0.197214 2.31819 0.838258 1.5391L0.91043 1.4514C1.51911 0.711641 2.49943 0.272949 3.54377 0.272949ZM3.54377 4.02972C4.27035 4.02972 4.85935 3.52513 4.85935 2.90268C4.85935 2.28023 4.27035 1.77564 3.54377 1.77564C2.8172 1.77564 2.2282 2.28023 2.2282 2.90268C2.2282 3.52513 2.8172 4.02972 3.54377 4.02972Z" fill="#FFD801"/>
</svg>
