<svg width="12" height="12" viewBox="0 0 12 12" fill="none" xmlns="http://www.w3.org/2000/svg">
<path fill-rule="evenodd" clip-rule="evenodd" d="M5.99983 0C7.91946 0 9.7214 0.616696 10.8402 1.65662L10.9729 1.77991C12.1512 2.87513 12.3259 4.31458 11.4271 5.52185L7.00755 11.4581C6.73132 11.8292 6.05621 11.9807 5.49968 11.7965C5.27962 11.7237 5.10133 11.6048 4.99211 11.4581L0.572583 5.52185C-0.326246 4.31458 -0.151539 2.87513 1.02678 1.77991L1.15944 1.65662C2.27826 0.616696 4.0802 0 5.99983 0ZM5.99983 5.28113C7.33536 5.28113 8.41801 4.57179 8.41801 3.69678C8.41801 2.82176 7.33536 2.11243 5.99983 2.11243C4.6643 2.11243 3.58165 2.82176 3.58165 3.69678C3.58165 4.57179 4.6643 5.28113 5.99983 5.28113Z" fill="#E8E5E7"/>
</svg>
