<svg xmlns="http://www.w3.org/2000/svg" xmlns:xlink="http://www.w3.org/1999/xlink" xml:space="preserve" version="1.1" style="shape-rendering:geometricPrecision;text-rendering:geometricPrecision;image-rendering:optimizeQuality;" viewBox="0 0 251 326" x="0px" y="0px" fill-rule="evenodd" clip-rule="evenodd"><defs><style type="text/css">
   
    .fil0 {fill:rgba(107, 114, 128);fill-rule:nonzero}
   
  </style></defs><g><path class="fil0" d="M125 82c26,0 46,21 46,46 0,26 -20,47 -46,47 -25,0 -46,-21 -46,-47 0,-25 21,-46 46,-46zm0 20c-14,0 -26,12 -26,26 0,15 12,27 26,27 15,0 27,-12 27,-27 0,-14 -12,-26 -27,-26z"></path><path class="fil0" d="M125 326c-63,-49 -132,-126 -124,-212 5,-65 60,-114 124,-114 63,0 117,47 125,109 11,88 -61,167 -125,217zm0 -25c55,-45 115,-115 105,-189 -6,-53 -52,-93 -105,-93 -54,0 -100,42 -105,97 -7,72 51,140 105,185z"></path></g></svg>