<?xml version="1.0" encoding="UTF-8"?>
<svg width="1200pt" height="1200pt" version="1.1" viewBox="0 0 1200 1200" xmlns="http://www.w3.org/2000/svg">
 <g>
  <rect width="1200" height="1200" fill="#ffde89"/>
  <path d="m644.76 506.5c10.375 0 18.809 8.4414 18.809 18.809 0 8.3438 6.7695 15.113 15.113 15.113s15.113-6.7695 15.113-15.113c0-27.039-22-49.039-49.039-49.039l-29.641 0.003906v-19.855c0-8.3438-6.7695-15.113-15.113-15.113s-15.113 6.7695-15.113 15.113v19.852h-29.648c-27.039 0-49.039 22-49.039 49.039v40.762c0 27.039 22 49.039 49.039 49.039l29.645 0.003906v78.391h-29.648c-10.375 0-18.809-8.4414-18.809-18.809 0-8.3438-6.7695-15.113-15.113-15.113s-15.113 6.7695-15.113 15.113c0 27.039 22 49.039 49.039 49.039l29.645-0.003907v19.859c0 8.3438 6.7695 15.113 15.113 15.113s15.113-6.7695 15.113-15.113v-19.852h29.648c27.039 0 49.039-22 49.039-49.039v-40.762c0-27.039-22-49.039-49.039-49.039h-29.645v-78.398zm18.812 127.43v40.762c0 10.375-8.4414 18.809-18.809 18.809l-29.648 0.003906v-78.383h29.648c10.367 0 18.809 8.4414 18.809 18.809zm-78.688-49.039h-29.648c-10.375 0-18.809-8.4414-18.809-18.809v-40.762c0-10.375 8.4414-18.809 18.809-18.809l29.648-0.003906z" fill="#b48d27"/>
  <path d="m600 282.6c-175.02 0-317.4 142.38-317.4 317.4s142.38 317.4 317.4 317.4 317.4-142.38 317.4-317.4c0.003906-175.02-142.38-317.4-317.4-317.4zm0 604.57c-158.34 0-287.17-128.83-287.17-287.17s128.83-287.17 287.17-287.17 287.17 128.83 287.17 287.17c0 158.35-128.82 287.17-287.17 287.17z" fill="#b48d27"/>
  <path d="m600 361.59c-131.46 0-238.41 106.95-238.41 238.41 0.003906 131.46 106.95 238.41 238.41 238.41 131.46 0 238.41-106.95 238.41-238.41 0-131.46-106.95-238.41-238.41-238.41zm0 446.6c-114.79 0-208.18-93.395-208.18-208.19s93.391-208.18 208.18-208.18 208.19 93.391 208.19 208.18-93.395 208.19-208.19 208.19z" fill="#b48d27"/>
 </g>
</svg>
