<svg xmlns:dc="http://purl.org/dc/elements/1.1/" xmlns:cc="http://creativecommons.org/ns#" xmlns:rdf="http://www.w3.org/1999/02/22-rdf-syntax-ns#" xmlns:svg="http://www.w3.org/2000/svg" xmlns="http://www.w3.org/2000/svg" xmlns:sodipodi="http://sodipodi.sourceforge.net/DTD/sodipodi-0.dtd" xmlns:inkscape="http://www.inkscape.org/namespaces/inkscape" viewBox="0 0 8.4666667 8.4666669" version="1.1" x="0px" y="0px"><svg:g><svg:path style="color:#000000;font-style:normal;font-variant:normal;font-weight:normal;font-stretch:normal;font-size:medium;line-height:normal;font-family:sans-serif;font-variant-ligatures:normal;font-variant-position:normal;font-variant-caps:normal;font-variant-numeric:normal;font-variant-alternates:normal;font-feature-settings:normal;text-indent:0;text-align:start;text-decoration:none;text-decoration-line:none;text-decoration-style:solid;text-decoration-color:#000000;letter-spacing:normal;word-spacing:normal;text-transform:none;writing-mode:lr-tb;direction:ltr;text-orientation:mixed;dominant-baseline:auto;baseline-shift:baseline;text-anchor:start;white-space:normal;shape-padding:0;clip-rule:nonzero;display:inline;overflow:visible;visibility:visible;opacity:1;isolation:auto;mix-blend-mode:normal;color-interpolation:sRGB;color-interpolation-filters:linearRGB;solid-color:#000000;solid-opacity:1;vector-effect:none;fill:rgba(107, 114, 128);fill-opacity:1;fill-rule:nonzero;stroke:none;stroke-width:0.52916664;stroke-linecap:round;stroke-linejoin:round;stroke-miterlimit:4;stroke-dasharray:none;stroke-dashoffset:0;stroke-opacity:1;color-rendering:auto;image-rendering:auto;shape-rendering:auto;text-rendering:auto;enable-background:accumulate" d="m 1.7851627,0.61419847 a 0.26460984,0.26460984 0 0 0 -0.2619994,0.267167 V 1.2704895 H 0.26380855 a 0.26460979,0.26460979 0 0 0 -0.2640666003,0.265617 v 6.052343 A 0.26460979,0.26460979 0 0 0 0.26380855,7.8525165 H 8.2013095 A 0.26460979,0.26460979 0 0 0 8.4669247,7.5884495 V 1.5361065 A 0.26460979,0.26460979 0 0 0 8.2013095,1.2704895 H 6.9414378 V 0.88136547 a 0.26460984,0.26460984 0 0 0 -0.2697507,-0.267167 0.26460984,0.26460984 0 0 0 -0.2599346,0.267167 V 1.2704895 H 2.0528467 V 0.88136547 a 0.26460984,0.26460984 0 0 0 -0.267684,-0.267167 z M 0.52942534,1.7996565 H 1.5231633 v 0.388606 a 0.2648417,0.2648417 0 1 0 0.5296834,0 v -0.388606 h 4.3589058 v 0.388606 a 0.26484265,0.26484265 0 1 0 0.5296853,0 v -0.388606 h 0.9958043 v 1.158068 H 0.52942534 Z m 0,1.687235 H 7.9372421 v 3.835942 H 0.52942534 Z"></svg:path></svg:g></svg>