<?xml version="1.0" encoding="UTF-8"?>
<svg width="1200pt" height="1200pt" version="1.1" viewBox="0 0 1200 1200" xmlns="http://www.w3.org/2000/svg">
 <g>
  <rect width="1200" height="1200" fill="#ffde89"/>
  <path d="m573.23 515.25c25.504-20.879 58.703-29.133 91.004-22.625l9.1523 1.8438c8.1484 1.6016 16.148-3.6562 17.797-11.836 1.6484-8.1836-3.6484-16.148-11.836-17.797l-9.1523-1.8359c-41.246-8.3125-83.574 2.2227-116.12 28.875-21.023 17.215-36.223 39.773-44.367 64.922h-23.852c-8.3438 0-15.113 6.7695-15.113 15.113s6.7695 15.113 15.113 15.113h17.637c-0.39453 4.3008-0.64062 8.6211-0.64062 12.992 0 4.3672 0.25 8.6914 0.64062 12.992h-17.637c-8.3438 0-15.113 6.7695-15.113 15.113s6.7695 15.113 15.113 15.113h23.852c8.1523 25.145 23.344 47.699 44.367 64.922 32.602 26.691 75.27 37.113 116.12 28.875l9.1523-1.8438c8.1836-1.6484 13.48-9.6133 11.836-17.797-1.6562-8.1836-9.6445-13.461-17.797-11.836l-9.1523 1.8438c-32.328 6.5-65.496-1.7383-91.004-22.633-13.816-11.312-24.305-25.609-31.145-41.535h120.54c8.3438 0 15.113-6.7695 15.113-15.113s-6.7695-15.113-15.113-15.113l-128.74 0.003906c-0.50781-4.2852-0.80078-8.6133-0.80078-12.992 0-4.375 0.29297-8.707 0.80078-12.992h128.73c8.3438 0 15.113-6.7695 15.113-15.113s-6.7695-15.113-15.113-15.113h-120.54c6.8359-15.93 17.328-30.234 31.148-41.547z" fill="#b48d27"/>
  <path d="m600 282.6c-175.02 0-317.4 142.38-317.4 317.4s142.38 317.4 317.4 317.4 317.4-142.38 317.4-317.4c0.003906-175.02-142.38-317.4-317.4-317.4zm0 604.57c-158.34 0-287.17-128.83-287.17-287.17s128.83-287.17 287.17-287.17 287.17 128.83 287.17 287.17c0 158.35-128.82 287.17-287.17 287.17z" fill="#b48d27"/>
  <path d="m600 361.59c-131.46 0-238.41 106.95-238.41 238.41 0.003906 131.46 106.95 238.41 238.41 238.41 131.46 0 238.41-106.95 238.41-238.41 0-131.46-106.95-238.41-238.41-238.41zm0 446.6c-114.79 0-208.18-93.395-208.18-208.19s93.391-208.18 208.18-208.18c114.79 0 208.18 93.391 208.18 208.18 0.003906 114.79-93.395 208.19-208.18 208.19z" fill="#b48d27"/>
 </g>
</svg>
